<svg xmlns="http://www.w3.org/2000/svg" width="33.744" height="30" viewBox="0 0 33.744 30">
  <path id="Caminho_1" data-name="Caminho 1" d="M23.569,20.135l1.875-1.875a.471.471,0,0,1,.8.334v8.518a2.813,2.813,0,0,1-2.812,2.812H2.812A2.813,2.813,0,0,1,0,27.113V6.491A2.813,2.813,0,0,1,2.812,3.679H18.835a.472.472,0,0,1,.334.8L17.294,6.356a.464.464,0,0,1-.334.135H2.812V27.113H23.434V20.463A.461.461,0,0,1,23.569,20.135ZM32.743,8.313,17.359,23.7l-5.3.586a2.42,2.42,0,0,1-2.671-2.671l.586-5.3L25.362.931a3.419,3.419,0,0,1,4.845,0l2.531,2.531a3.432,3.432,0,0,1,.006,4.851Zm-5.788,1.81-3.4-3.4L12.666,17.61l-.428,3.826,3.826-.428Zm3.8-4.669L28.22,2.923a.612.612,0,0,0-.867,0l-1.81,1.81,3.4,3.4,1.81-1.81A.624.624,0,0,0,30.751,5.454Z" transform="translate(0 0.075)" fill="#4060a0"/>
</svg>
