<svg xmlns="http://www.w3.org/2000/svg" width="26.25" height="30" viewBox="0 0 26.25 30">
  <path id="Caminho_2" data-name="Caminho 2" d="M15.7,24.375h1.406a.7.7,0,0,0,.7-.7V11.016a.7.7,0,0,0-.7-.7H15.7a.7.7,0,0,0-.7.7V23.672A.7.7,0,0,0,15.7,24.375ZM25.313,4.687H20.484L18.492,1.365A2.813,2.813,0,0,0,16.079,0H10.171A2.813,2.813,0,0,0,7.76,1.365L5.766,4.687H.938A.937.937,0,0,0,0,5.625v.938A.937.937,0,0,0,.938,7.5h.938V27.187A2.812,2.812,0,0,0,4.688,30H21.563a2.812,2.812,0,0,0,2.813-2.812h0V7.5h.938a.937.937,0,0,0,.938-.937V5.625A.937.937,0,0,0,25.313,4.687Zm-15.244-1.7a.352.352,0,0,1,.3-.171h5.508a.352.352,0,0,1,.3.171l1.023,1.7H9.046Zm11.494,24.2H4.688V7.5H21.563ZM9.141,24.375h1.406a.7.7,0,0,0,.7-.7V11.016a.7.7,0,0,0-.7-.7H9.141a.7.7,0,0,0-.7.7V23.672A.7.7,0,0,0,9.141,24.375Z" fill="red"/>
</svg>
